<svg id="Layer_1" height="300" viewBox="0 0 100 100" width="300" xmlns="http://www.w3.org/2000/svg" data-name="Layer 1" version="1.1" xmlns:xlink="http://www.w3.org/1999/xlink" xmlns:svgjs="http://svgjs.dev/svgjs"><g width="100%" height="100%" transform="matrix(1,0,0,1,0,0)"><g fill="rgb(0,0,0)"><path d="m90.77 82h-52.45a1.5 1.5 0 1 1 0-3h50.95v-67.6h-81.12v67.6h16a1.5 1.5 0 0 1 0 3h-17.5a1.5 1.5 0 0 1 -1.5-1.5v-70.6a1.5 1.5 0 0 1 1.5-1.5h84.12a1.5 1.5 0 0 1 1.5 1.5v70.63a1.5 1.5 0 0 1 -1.5 1.47z" fill="#ffffff" fill-opacity="1" data-original-color="#000000ff" stroke="none" stroke-opacity="1"/><path d="m31.24 95.6a8.58 8.58 0 0 1 -8.57-8.6v-21.79a1.5 1.5 0 0 1 1.5-1.5h14.15a1.5 1.5 0 0 1 1.5 1.5v21.79a8.59 8.59 0 0 1 -8.58 8.6zm-5.57-28.89v20.29a5.58 5.58 0 1 0 11.15 0v-20.29z" fill="#ffffff" fill-opacity="1" data-original-color="#000000ff" stroke="none" stroke-opacity="1"/><path d="m23.71 60.46c-4.73 0-6.07 0-6.55-.07a1.48 1.48 0 0 1 -.95 0 1.5 1.5 0 0 1 -.88-1.93l14.8-39.34a1.51 1.51 0 0 1 1.41-1 1.52 1.52 0 0 1 1.4 1l14.2 39.3a1.49 1.49 0 0 1 -1.41 2l-17.5.05zm-4.8-3h9.33 15.36l-12.09-33.52z" fill="#ffffff" fill-opacity="1" data-original-color="#000000ff" stroke="none" stroke-opacity="1"/><path d="m34.24 66.71a1.5 1.5 0 0 1 -1.5-1.5v-16.45a1.52 1.52 0 0 0 -.44-1.06 1.5 1.5 0 0 0 -2.56 1.06v16.45a1.5 1.5 0 0 1 -3 0v-16.45a4.5 4.5 0 0 1 9 0v16.45a1.5 1.5 0 0 1 -1.5 1.5z" fill="#ffffff" fill-opacity="1" data-original-color="#000000ff" stroke="none" stroke-opacity="1"/><path d="m90.77 27h-57.12a1.5 1.5 0 0 1 0-3h57.12a1.5 1.5 0 0 1 0 3z" fill="#ffffff" fill-opacity="1" data-original-color="#000000ff" stroke="none" stroke-opacity="1"/><path d="m29.34 27h-22.1a1.5 1.5 0 1 1 0-3h22.1a1.5 1.5 0 0 1 0 3z" fill="#ffffff" fill-opacity="1" data-original-color="#000000ff" stroke="none" stroke-opacity="1"/><path d="m24.4 40.09h-17.75a1.5 1.5 0 1 1 0-3h17.75a1.5 1.5 0 0 1 0 3z" fill="#ffffff" fill-opacity="1" data-original-color="#000000ff" stroke="none" stroke-opacity="1"/><path d="m90.77 40.09h-52.38a1.5 1.5 0 0 1 0-3h52.38a1.5 1.5 0 1 1 0 3z" fill="#ffffff" fill-opacity="1" data-original-color="#000000ff" stroke="none" stroke-opacity="1"/><path d="m90.3 55.84h-46.21a1.5 1.5 0 0 1 0-3h46.21a1.5 1.5 0 0 1 0 3z" fill="#ffffff" fill-opacity="1" data-original-color="#000000ff" stroke="none" stroke-opacity="1"/><path d="m18.47 55.84h-11.23a1.5 1.5 0 0 1 0-3h11.23a1.5 1.5 0 0 1 0 3z" fill="#ffffff" fill-opacity="1" data-original-color="#000000ff" stroke="none" stroke-opacity="1"/><path d="m90.3 68.78h-52a1.5 1.5 0 1 1 0-3h52a1.5 1.5 0 0 1 0 3z" fill="#ffffff" fill-opacity="1" data-original-color="#000000ff" stroke="none" stroke-opacity="1"/><path d="m24.17 68.78h-17.52a1.5 1.5 0 0 1 0-3h17.52a1.5 1.5 0 0 1 0 3z" fill="#ffffff" fill-opacity="1" data-original-color="#000000ff" stroke="none" stroke-opacity="1"/><path d="m25.6 26.6a1.5 1.5 0 0 1 -1.5-1.5v-15.2a1.5 1.5 0 1 1 3 0v15.2a1.5 1.5 0 0 1 -1.5 1.5z" fill="#ffffff" fill-opacity="1" data-original-color="#000000ff" stroke="none" stroke-opacity="1"/><path d="m48 27a1.51 1.51 0 0 1 -1.5-1.5v-15.6a1.5 1.5 0 1 1 3 0v15.56a1.5 1.5 0 0 1 -1.5 1.54z" fill="#ffffff" fill-opacity="1" data-original-color="#000000ff" stroke="none" stroke-opacity="1"/><path d="m59.27 39.7a1.5 1.5 0 0 1 -1.5-1.5v-13.2a1.5 1.5 0 1 1 3 0v13.2a1.5 1.5 0 0 1 -1.5 1.5z" fill="#ffffff" fill-opacity="1" data-original-color="#000000ff" stroke="none" stroke-opacity="1"/><path d="m70 54.93a1.5 1.5 0 0 1 -1.5-1.5v-14.94a1.5 1.5 0 0 1 3 0v14.94a1.5 1.5 0 0 1 -1.5 1.5z" fill="#ffffff" fill-opacity="1" data-original-color="#000000ff" stroke="none" stroke-opacity="1"/><path d="m59.27 66.71a1.5 1.5 0 0 1 -1.5-1.5v-10.87a1.5 1.5 0 0 1 3 0v10.87a1.5 1.5 0 0 1 -1.5 1.5z" fill="#ffffff" fill-opacity="1" data-original-color="#000000ff" stroke="none" stroke-opacity="1"/><path d="m70 80.82a1.47 1.47 0 0 1 -.73-.19 1.5 1.5 0 0 1 -.74-1.58c0-.91 0-7.45 0-11.44a1.51 1.51 0 0 1 1.47-1.52 1.5 1.5 0 0 1 1.5 1.49c.12 11.91.06 12-.19 12.47a1.49 1.49 0 0 1 -1.31.77z" fill="#ffffff" fill-opacity="1" data-original-color="#000000ff" stroke="none" stroke-opacity="1"/></g></g></svg>