<svg id="Layer_1" enable-background="new 0 0 512 512" viewBox="0 0 512 512" xmlns="http://www.w3.org/2000/svg" width="300" height="300" version="1.1" xmlns:xlink="http://www.w3.org/1999/xlink" xmlns:svgjs="http://svgjs.dev/svgjs"><g width="100%" height="100%" transform="matrix(1,0,0,1,0,0)"><path d="m501.14 334.806c-3.532-10.428-11.968-18.001-23.755-21.324-7.362-2.075-16.017-2.55-25.859-1.454-12.385-14.878-34.334-21.121-51.143-15.265-1.553-1.72-3.266-3.272-5.088-4.682 2.688-12.458 8.983-30.765 18.07-40.058 2.185-2.235 2.624-5.647 1.075-8.363-1.549-2.715-4.712-4.077-7.746-3.33-7.798 1.91-15.207 4.769-22.023 8.421 2.732-23.221 7.346-43.548 14.531-64.388.987-2.863.021-6.036-2.394-7.864-2.415-1.827-5.731-1.895-8.218-.167-13.349 9.275-24.436 22.849-33.124 40.473v-83.472c18.622-3.319 32.817-19.617 32.83-39.18v-52.765c0-3.866-3.134-7-7-7-3.457 0-7.257.911-11.184 2.436-3.014-9.049-8.134-16.933-16.473-25.661-1.321-1.382-3.149-2.165-5.061-2.165s-3.74.782-5.061 2.165c-8.172 8.553-13.215 16.226-16.247 24.992-3.717-1.152-7.631-1.768-11.632-1.768-3.866 0-7 3.134-7 7v52.744c0 19.573 14.196 35.882 32.83 39.201v69.359c-9.033-12.328-19.774-21.882-31.694-27.724-2.685-1.317-5.911-.781-8.027 1.333s-2.656 5.339-1.342 8.026c7.534 15.416 13.161 32.831 16.685 51.27-7.896-6.223-16.774-11.01-26.333-14.145-2.888-.948-6.058.078-7.844 2.537s-1.782 5.79.011 8.244c12.509 17.124 19.374 37.422 19.979 58.91-2.297 1.649-4.441 3.508-6.348 5.619-14.589-5.081-33.045-1.051-45.765 9.824l-1.044-.28c-46.845-32.826-71.948-23.396-108.864-5.344-17.62 8.615-35.179 16.973-51.795 24.827l-3.479-8.354c-4.616-11.085-17.392-16.355-28.483-11.752l-34.673 14.398c-5.405 2.245-9.602 6.438-11.817 11.807-2.216 5.37-2.197 11.303.054 16.706l58.715 140.989c3.483 8.364 11.61 13.418 20.155 13.418 2.78 0 5.606-.536 8.328-1.666l34.673-14.398c5.405-2.244 9.603-6.438 11.818-11.807 2.216-5.37 2.196-11.303-.054-16.706l-3.933-9.444 22.599-10.988c8.255-4.014 16.554-4.72 25.368-2.161l72.122 20.94c5.311 1.542 10.799 2.202 16.368 2.202 19.17 0 39.271-7.823 56.167-14.398 1.488-.579 2.948-1.147 4.376-1.698l135.356-52.161c21.909-8.443 35.444-35.092 28.393-55.909zm-110.315-73.485c-3.751 8.031-6.467 16.512-8.246 23.641-4.854-1.957-9.839-3.316-14.461-4.252 5.743-7.771 13.55-14.416 22.707-19.389zm-12.686-55.193c-4.139 16.607-6.896 33.701-8.589 52.836-1.018.856-2.013 1.734-2.982 2.631-1.545-7.334-3.492-14.397-5.804-21.13 4.692-13.508 10.501-24.98 17.375-34.337zm-29.564-179.552c4.465 5.584 7.235 10.838 8.918 16.852-3.396 2.184-6.727 4.615-9.861 7.14-2.22-2.983-4.844-5.621-7.764-7.866 1.696-5.719 4.403-10.752 8.707-16.126zm-25.938 22.797c5.907 1.691 11.092 5.47 14.524 10.621-5.592 5.605-10.481 11.506-14.524 17.479zm2.249 55.3c3.216-12.085 12.378-25.784 25.427-37.92 8.935-8.31 17.62-13.89 23.983-16.554v43.951c-.009 14.233-11.596 25.813-25.83 25.813-10.49-.001-19.54-6.286-23.58-15.29zm29.916 170.645c-.751 1.125-1.463 2.27-2.144 3.43-2.054-.111-3.533-.129-4.191-.129-1.401 0-6.454.076-13.079.982-.188-27.448-4.48-53.795-12.631-77.679 15.942 16.735 27.568 42.858 32.045 73.396zm-48.239-30.14c5.059 3.731 9.678 8.148 13.75 13.174.749 7.973 1.096 16.06 1.07 24.184-1.612.471-3.235.998-4.852 1.588-1.117-13.606-4.477-26.724-9.968-38.946zm-11.247 66.323c3.278 1.857 7.436.79 9.412-2.417 8.322-13.507 34.395-16.464 43.739-16.464s35.417 2.958 43.738 16.464c1.976 3.207 6.135 4.274 9.412 2.417 9.271-5.258 22.918-3.339 32.865 3.704-2.006.507-4.041 1.054-6.122 1.664l-90.335 26.501c-4.626-9.45-13.155-16.933-24.093-19.864l-44.857-12.019c8.819-3.813 18.901-4.148 26.241.014zm-163.884 158.289c-.789 1.91-2.296 3.408-4.245 4.217l-34.674 14.398c-3.969 1.647-8.539-.239-10.19-4.204l-58.715-140.989c-.812-1.949-.824-4.074-.036-5.984s2.296-3.408 4.245-4.217l34.673-14.398c.974-.405 1.985-.596 2.979-.596 3.057 0 5.965 1.808 7.211 4.801l58.715 140.989c.812 1.948.825 4.073.037 5.983zm336.277-92.137-135.356 52.161c-1.442.556-2.917 1.129-4.419 1.714-19.834 7.719-44.52 17.324-63.554 11.799l-72.122-20.94c-12.127-3.522-24.035-2.507-35.393 3.015l-21.869 10.633-40.524-97.307c16.837-7.957 34.655-16.435 52.557-25.188 34.503-16.873 54.428-24.315 95.65 4.916.678.48 1.435.836 2.238 1.051l65.393 17.522c12.618 3.381 20.133 16.397 16.752 29.014-3.381 12.619-16.397 20.136-29.016 16.752l-86.906-23.287c-3.737-1.004-7.573 1.216-8.573 4.949-1.001 3.734 1.215 7.573 4.95 8.573l86.906 23.287c20.074 5.38 40.782-6.576 46.162-26.651 1.149-4.289 1.507-8.607 1.163-12.798l90.554-26.566c29.92-8.777 50.697-5.415 55.578 8.995 4.624 13.652-5.367 32.651-20.171 38.356zm-408.076-118.226c.593.159 1.202.239 1.812.239.609 0 1.218-.08 1.812-.239 30.765-8.243 50.644-39.276 50.644-79.062v-34.363c0-15.908-12.942-28.85-28.85-28.85h-16.607v-11.479h6.514c3.866 0 7-3.134 7-7v-69.16c0-11.312-9.203-20.514-20.514-20.514s-20.514 9.203-20.514 20.514v69.161c0 3.866 3.134 7 7 7h6.514v11.479h-16.605c-15.908 0-28.85 12.942-28.85 28.85v34.363c0 39.784 19.879 70.817 50.644 79.061zm-4.703-229.914c0-3.592 2.922-6.514 6.514-6.514s6.514 2.922 6.514 6.514v62.161h-13.028zm-31.941 116.489c0-8.188 6.662-14.85 14.85-14.85h47.21c8.188 0 14.85 6.662 14.85 14.85v34.363c0 32.431-15.028 57.699-38.455 65.014-23.427-7.315-38.455-32.583-38.455-65.014zm125.443 113.663c3.866 0 7-3.134 7-7v-106.663c0-8.188 6.662-14.849 14.85-14.849h16.605v121.513c0 3.866 3.134 7 7 7s7-3.134 7-7v-121.513h16.605c8.188 0 14.85 6.661 14.85 14.849v106.664c0 3.866 3.134 7 7 7s7-3.134 7-7v-106.664c0-15.907-12.942-28.849-28.85-28.849h-16.605v-11.478h6.514c3.866 0 7-3.134 7-7v-69.162c0-11.312-9.203-20.514-20.514-20.514s-20.514 9.203-20.514 20.514v69.161c0 3.866 3.134 7 7 7h6.514v11.478h-16.605c-15.908 0-28.85 12.942-28.85 28.849v106.664c0 3.866 3.134 7 7 7zm38.941-230.152c0-3.592 2.922-6.514 6.514-6.514s6.514 2.922 6.514 6.514v62.161h-13.028z" fill="#578b07" fill-opacity="1" data-original-color="#000000ff" stroke="none" stroke-opacity="1"/></g></svg>