<svg version="1.1" id="Capa_1" xmlns="http://www.w3.org/2000/svg" xmlns:xlink="http://www.w3.org/1999/xlink" x="0px" y="0px" viewBox="0 0 512 512" style="enable-background:new 0 0 512 512;" xml:space="preserve" width="300" height="300" xmlns:svgjs="http://svgjs.dev/svgjs"><g width="100%" height="100%" transform="matrix(1,0,0,1,0,0)"><g>
	<g>
		<path d="M180.296,404.153c-1.86-1.86-4.44-2.93-7.07-2.93c-2.63,0-5.21,1.07-7.07,2.93s-2.93,4.43-2.93,7.07&#10;&#9;&#9;&#9;c0,2.63,1.07,5.21,2.93,7.07s4.43,2.93,7.07,2.93c2.63,0,5.21-1.07,7.07-2.93c1.86-1.86,2.93-4.44,2.93-7.07&#10;&#9;&#9;&#9;C183.226,408.583,182.156,406.013,180.296,404.153z" fill="#578b07" fill-opacity="1" data-original-color="#000000ff" stroke="none" stroke-opacity="1"/>
	</g>
</g><g>
	<g>
		<path d="M390.332,273.305c7.735,7.735,17.897,11.603,28.058,11.603c10.161,0,20.322-3.868,28.058-11.603l53.95-53.95&#10;&#9;&#9;&#9;c15.471-15.471,15.471-40.644,0-56.115L375.767,38.611c-15.472-15.471-40.644-15.469-56.115,0l-53.95,53.95&#10;&#9;&#9;&#9;c-15.471,15.471-15.471,40.644,0,56.115l32.525,32.525l-46.514,46.514l-79.545-79.545l60.329-60.329&#10;&#9;&#9;&#9;c1.875-1.875,2.929-4.419,2.929-7.071s-1.054-5.196-2.929-7.071l-43.777-43.777c-3.165-3.165-8.049-3.841-11.958-1.653&#10;&#9;&#9;&#9;l-53.456,29.943c-0.8,0.449-1.535,1.005-2.184,1.653l-88.251,88.251c-0.648,0.649-1.205,1.384-1.653,2.184L1.276,203.755&#10;&#9;&#9;&#9;c-2.188,3.907-1.513,8.792,1.653,11.958l43.777,43.777c1.875,1.875,4.419,2.929,7.071,2.929s5.196-1.054,7.071-2.929&#10;&#9;&#9;&#9;l51.741-51.741l79.544,79.545L56.929,422.499c-3.905,3.905-3.905,10.237,0,14.143l45.437,45.437&#10;&#9;&#9;&#9;c1.953,1.952,4.512,2.929,7.071,2.929s5.119-0.977,7.071-2.929l31.784-31.784c3.905-3.905,3.905-10.237,0-14.143&#10;&#9;&#9;&#9;c-3.905-3.905-10.237-3.905-14.143,0l-24.713,24.713L78.141,429.57l135.204-135.205l45.437-45.436l53.585-53.585l31.294,31.294&#10;&#9;&#9;&#9;l-53.577,53.577c-0.003,0.003-0.006,0.005-0.008,0.008L244.64,325.66c-0.002,0.002-0.004,0.005-0.006,0.007L196.15,374.15&#10;&#9;&#9;&#9;c-3.905,3.905-3.905,10.237,0,14.143c3.905,3.905,10.237,3.905,14.143,0l41.418-41.418l81.262,81.262&#10;&#9;&#9;&#9;c0.695,0.694,1.488,1.283,2.354,1.747l97.69,52.254c1.487,0.795,3.106,1.183,4.714,1.183c2.591,0,5.151-1.007,7.074-2.929&#10;&#9;&#9;&#9;c3.115-3.116,3.825-7.903,1.747-11.788l-52.254-97.69c-0.463-0.866-1.052-1.66-1.747-2.354l-81.262-81.262l46.514-46.514&#10;&#9;&#9;&#9;L390.332,273.305z M105.52,186.535c-0.001,0.001-0.002,0.002-0.003,0.003l-51.739,51.739l-9.507-9.507L88.841,184.2&#10;&#9;&#9;&#9;c3.905-3.905,3.905-10.237,0-14.143c-3.905-3.906-10.237-3.905-14.143,0l-44.57,44.569l-7.702-7.702l25.568-45.645l86.295-86.295&#10;&#9;&#9;&#9;l45.645-25.568l31.353,31.353l-60.327,60.327c0,0.001-0.001,0.001-0.001,0.001L105.52,186.535z M206.278,273.151l-79.544-79.545&#10;&#9;&#9;&#9;l31.294-31.294l79.545,79.545L206.278,273.151z M377.364,381.651l35.989,67.283l-67.283-35.989l-80.214-80.214l31.294-31.294&#10;&#9;&#9;&#9;L377.364,381.651z M319.442,174.129l-39.596-39.596c-7.673-7.671-7.673-20.156,0-27.828l2.866-2.866l55.537,55.537&#10;&#9;&#9;&#9;c1.953,1.953,4.512,2.929,7.071,2.929c2.559,0,5.119-0.976,7.071-2.929c3.905-3.905,3.905-10.237,0-14.143l-55.537-55.537&#10;&#9;&#9;&#9;l36.941-36.941c3.836-3.836,8.875-5.754,13.914-5.754c5.039,0,10.078,1.918,13.914,5.754l124.629,124.629&#10;&#9;&#9;&#9;c7.672,7.672,7.672,20.157,0,27.829l-1.084,1.084c-0.367-0.556-0.794-1.084-1.284-1.573l-33.799-33.799&#10;&#9;&#9;&#9;c-3.905-3.905-10.237-3.905-14.143,0c-3.905,3.905-3.905,10.237,0,14.143l33.799,33.799c0.49,0.489,1.017,0.917,1.573,1.284&#10;&#9;&#9;&#9;l-39.011,39.011c-7.672,7.673-20.157,7.673-27.829,0l-39.596-39.596L319.442,174.129z" fill="#578b07" fill-opacity="1" data-original-color="#000000ff" stroke="none" stroke-opacity="1"/>
	</g>
</g><g>
	<g>
		<path d="M113.593,145.305c-1.87-1.86-4.44-2.93-7.07-2.93c-2.64,0-5.21,1.07-7.08,2.93c-1.86,1.87-2.93,4.44-2.93,7.08&#10;&#9;&#9;&#9;c0,2.63,1.07,5.2,2.93,7.07c1.87,1.86,4.44,2.93,7.08,2.93c2.63,0,5.2-1.07,7.07-2.93c1.86-1.87,2.93-4.44,2.93-7.07&#10;&#9;&#9;&#9;C116.524,149.745,115.454,147.175,113.593,145.305z" fill="#578b07" fill-opacity="1" data-original-color="#000000ff" stroke="none" stroke-opacity="1"/>
	</g>
</g><g>
</g><g>
</g><g>
</g><g>
</g><g>
</g><g>
</g><g>
</g><g>
</g><g>
</g><g>
</g><g>
</g><g>
</g><g>
</g><g>
</g><g>
</g></g></svg>