<svg clip-rule="evenodd" fill-rule="evenodd" stroke-linejoin="round" stroke-miterlimit="2" viewBox="0 0 101 101" xmlns="http://www.w3.org/2000/svg" xmlns:serif="http://www.serif.com/" width="300" height="300" version="1.1" xmlns:xlink="http://www.w3.org/1999/xlink" xmlns:svgjs="http://svgjs.dev/svgjs"><g width="100%" height="100%" transform="matrix(1,0,0,1,0,0)"><path d="m49.135 60.709c0-2.165-1.755-3.92-3.92-3.92h-39.795c-2.165 0-3.92 1.755-3.92 3.92v19.7c0 2.165 1.755 3.92 3.92 3.92h39.795c2.165 0 3.92-1.755 3.92-3.92zm50.365 0c0-2.165-1.755-3.92-3.92-3.92h-39.795c-2.165 0-3.92 1.755-3.92 3.92v19.7c0 2.165 1.755 3.92 3.92 3.92h39.795c2.165 0 3.92-1.755 3.92-3.92zm-54.285 0h-39.795v19.7h39.795zm50.365 0h-39.795v19.7h39.795zm-79.731 3.772c-3.354 0-6.078 2.723-6.078 6.078 0 3.354 2.724 6.078 6.078 6.078s6.078-2.724 6.078-6.078c0-3.355-2.724-6.078-6.078-6.078zm18.937 0c-3.354 0-6.078 2.723-6.078 6.078 0 3.354 2.724 6.078 6.078 6.078 3.355 0 6.078-2.724 6.078-6.078 0-3.355-2.723-6.078-6.078-6.078zm31.428 0c-3.354 0-6.078 2.723-6.078 6.078 0 3.354 2.724 6.078 6.078 6.078s6.078-2.724 6.078-6.078c0-3.355-2.724-6.078-6.078-6.078zm18.937 0c-3.354 0-6.078 2.723-6.078 6.078 0 3.354 2.724 6.078 6.078 6.078 3.355 0 6.078-2.724 6.078-6.078 0-3.355-2.723-6.078-6.078-6.078zm-69.302 3.92c1.191 0 2.158.967 2.158 2.158s-.967 2.158-2.158 2.158-2.158-.967-2.158-2.158.967-2.158 2.158-2.158zm18.937 0c1.191 0 2.158.967 2.158 2.158s-.967 2.158-2.158 2.158-2.158-.967-2.158-2.158.967-2.158 2.158-2.158zm31.428 0c1.191 0 2.158.967 2.158 2.158s-.967 2.158-2.158 2.158-2.158-.967-2.158-2.158.967-2.158 2.158-2.158zm18.937 0c1.191 0 2.158.967 2.158 2.158s-.967 2.158-2.158 2.158-2.158-.967-2.158-2.158.967-2.158 2.158-2.158zm-42.298-41.084-4.493 2.011-1.723-3.849c-.784-1.752-2.355-3.124-4.499-3.651-1.663-.409-3.581-.248-5.325.532-.693.31-1.995 1.213-3.575 2.638-2.76 2.489-6.894 6.783-10.35 10.729-2.378 2.714-4.436 5.274-5.571 7.004-.792 1.206-1.22 2.208-1.373 2.838-.718 2.952.503 5.698 3.171 7.142.573.31 1.607.665 3.036.887 2.052.318 5.342.505 8.96.557 5.26.075 11.233-.121 14.936-.507 2.126-.222 3.674-.591 4.367-.902 1.744-.78 3.142-2.103 3.945-3.616 1.034-1.95 1.058-4.036.274-5.788l-1.723-3.849 4.493-2.011c1.113.923 2.698 1.193 4.107.562l15.339-6.866c1.976-.884 2.861-3.203 1.976-5.179l-3.137-7.009c-.885-1.976-3.203-2.861-5.179-1.976l-15.339 6.865c-1.409.631-2.264 1.992-2.317 3.438zm6.503 26.076h29.4c1.082 0 1.96-.878 1.96-1.96 0-1.081-.878-1.96-1.96-1.96h-29.4c-1.082 0-1.96.879-1.96 1.96 0 1.082.878 1.96 1.96 1.96zm-14.574-22.463-1.723-3.849c-.318-.712-.987-1.232-1.858-1.447-.871-.214-1.873-.105-2.786.304-2.793 1.25-17.925 17.527-18.662 20.557-.278 1.144.194 2.209 1.228 2.769 2.76 1.494 25.044 1.152 27.832-.095.913-.409 1.662-1.084 2.083-1.876.42-.793.478-1.638.159-2.35l-1.723-3.849-3.882 1.738c-1.976.885-4.295 0-5.179-1.976l-1.347-3.009c-.885-1.976 0-4.295 1.976-5.18zm9.307.129-11.587 5.186 1.346 3.009 11.588-5.186zm21.158-3.459-3.137-7.008-15.338 6.865 3.137 7.009z" fill="#578b07" fill-opacity="1" data-original-color="#000000ff" stroke="none" stroke-opacity="1"/></g></svg>