<svg xmlns="http://www.w3.org/2000/svg" id="Icons" viewBox="0 0 60 60" width="300" height="300" version="1.1" xmlns:xlink="http://www.w3.org/1999/xlink" xmlns:svgjs="http://svgjs.dev/svgjs"><g width="100%" height="100%" transform="matrix(1,0,0,1,0,0)"><path d="M32.447.105a1,1,0,0,0-1.342.448,13.981,13.981,0,0,0-.859,2.638l-.009,0A2.034,2.034,0,0,0,28.7,3.5a1.97,1.97,0,0,0-.838,1.281c-.241,1.307-.426,2.759-.567,4.313a20.929,20.929,0,0,0-3.682-3.68,2.033,2.033,0,0,0-1.528-.4,1.984,1.984,0,0,0-1.34.821,18.751,18.751,0,0,0-3.407-1.766,1,1,0,0,0-.685,1.878,17.432,17.432,0,0,1,2.934,1.524h0a1.988,1.988,0,0,0,.383,2.714A12.161,12.161,0,0,1,24.961,19.3,2,2,0,0,0,24,21v2.278A1.993,1.993,0,0,0,23,25V58a2,2,0,0,0,2,2H35a2,2,0,0,0,2-2V25a1.993,1.993,0,0,0-1-1.722V21a2,2,0,0,0-.961-1.7,12.161,12.161,0,0,1,4.988-9.121,1.989,1.989,0,0,0,.384-2.714h0a17.448,17.448,0,0,1,2.933-1.524,1,1,0,0,0-.685-1.878,18.751,18.751,0,0,0-3.407,1.766,1.984,1.984,0,0,0-1.34-.821,2.027,2.027,0,0,0-1.528.4A21.368,21.368,0,0,0,33.42,8.216c.1-.8.2-1.579.332-2.3A1.992,1.992,0,0,0,32.205,3.6a13.057,13.057,0,0,1,.691-2.16A1,1,0,0,0,32.447.105ZM34,21v2H26V21ZM21.222,8.62l1.165-1.633A16.31,16.31,0,0,1,28.965,19h-2A14.376,14.376,0,0,0,21.222,8.62ZM25,58V25H35l0,33ZM37.62,6.985l.549.762c.007.01.007.023.015.033s.017.013.024.022l.581.8A14.4,14.4,0,0,0,33.035,19h-2A16.3,16.3,0,0,1,37.62,6.985ZM30,14.019a17.287,17.287,0,0,0-.9-2.093,51.405,51.405,0,0,1,.731-6.778l.937.2c.008,0,.014.008.022.01s.031,0,.046,0l.945.2a50.985,50.985,0,0,0-.659,5.948A17.159,17.159,0,0,0,30,14.019Z" fill="#578b07" fill-opacity="1" data-original-color="#000000ff" stroke="none" stroke-opacity="1"/></g></svg>